<svg width="20" height="22" viewBox="0 0 20 22" fill="none" xmlns="http://www.w3.org/2000/svg">
<path d="M10.0361 5.86475L11.5461 9.67322L15.7326 9.89605L12.473 12.4688L13.5561 16.4089L10.0361 14.1907L6.50567 16.4089L7.58874 12.4688L4.3291 9.89605L8.52602 9.67322L10.0361 5.86475Z" fill="#E07000"/>
<path d="M10.0156 21.9999C9.92188 21.9989 9.8293 21.9796 9.74342 21.9431C9.65753 21.9065 9.5801 21.8535 9.51574 21.7872L0.142974 12.0229C0.0445007 11.8949 -0.00353169 11.7368 0.0075901 11.5773C-0.00253003 11.5067 -0.00253003 11.4351 0.0075901 11.3646H0.0075901C0.608584 9.23534 1.91188 7.357 3.71716 6.01822C5.52245 4.67945 7.72981 3.95435 10 3.95435C12.2702 3.95435 14.4776 4.67945 16.2828 6.01822C18.0881 7.357 19.3914 9.23534 19.9924 11.3646C20.0025 11.4351 20.0025 11.5067 19.9924 11.5773C19.9919 11.742 19.9288 11.9007 19.8154 12.0229L10.4426 21.7872C10.3343 21.9097 10.1811 21.986 10.0156 21.9999ZM1.44475 11.4051L10.0156 20.3793L18.6177 11.4051C18.0449 9.62631 16.9031 8.07191 15.3586 6.9683C13.8141 5.86469 11.9477 5.26954 10.0312 5.26954C8.11476 5.26954 6.24835 5.86469 4.70388 6.9683C3.15942 8.07191 2.0176 9.62631 1.44475 11.4051Z" fill="#E07000"/>
<path d="M10.0365 2.02578C10.6117 2.02578 11.078 1.5723 11.078 1.01289C11.078 0.453487 10.6117 0 10.0365 0C9.46138 0 8.99512 0.453487 8.99512 1.01289C8.99512 1.5723 9.46138 2.02578 10.0365 2.02578Z" fill="#E07000"/>
<path d="M16.4203 3.95034C16.9955 3.95034 17.4617 3.49686 17.4617 2.93745C17.4617 2.37805 16.9955 1.92456 16.4203 1.92456C15.8452 1.92456 15.3789 2.37805 15.3789 2.93745C15.3789 3.49686 15.8452 3.95034 16.4203 3.95034Z" fill="#E07000"/>
<path d="M3.642 3.95034C4.21716 3.95034 4.68342 3.49686 4.68342 2.93745C4.68342 2.37805 4.21716 1.92456 3.642 1.92456C3.06684 1.92456 2.60059 2.37805 2.60059 2.93745C2.60059 3.49686 3.06684 3.95034 3.642 3.95034Z" fill="#E07000"/>
</svg>
