<svg width="32" height="32" viewBox="0 0 32 32" fill="none" xmlns="http://www.w3.org/2000/svg">
<rect x="0.5" y="0.5" width="31" height="31" rx="0.5" stroke="#32AAA7"/>
<path d="M14.6666 8.66667C13.8787 8.66667 13.0985 8.82187 12.3705 9.12339C11.6426 9.42492 10.9811 9.86688 10.424 10.424C9.86683 10.9812 9.42488 11.6426 9.12335 12.3706C8.82182 13.0985 8.66663 13.8787 8.66663 14.6667C8.66663 15.4546 8.82182 16.2348 9.12335 16.9628C9.42488 17.6907 9.86683 18.3522 10.424 18.9093C10.9811 19.4665 11.6426 19.9084 12.3705 20.2099C13.0985 20.5115 13.8787 20.6667 14.6666 20.6667C15.4546 20.6667 16.2348 20.5115 16.9627 20.2099C17.6907 19.9084 18.3521 19.4665 18.9093 18.9093C19.4664 18.3522 19.9084 17.6907 20.2099 16.9628C20.5114 16.2348 20.6666 15.4546 20.6666 14.6667C20.6666 13.8787 20.5114 13.0985 20.2099 12.3706C19.9084 11.6426 19.4664 10.9812 18.9093 10.424C18.3521 9.86688 17.6907 9.42492 16.9627 9.12339C16.2348 8.82187 15.4546 8.66667 14.6666 8.66667V8.66667Z" stroke="#32AAA7" stroke-width="2" stroke-miterlimit="10"/>
<path d="M23.3333 23.3334L18.958 18.958" stroke="#32AAA7" stroke-width="2" stroke-miterlimit="10" stroke-linecap="round"/>
</svg>
