<svg width="32" height="32" viewBox="0 0 32 32" fill="none" xmlns="http://www.w3.org/2000/svg">
<path fill-rule="evenodd" clip-rule="evenodd" d="M0.195341 18.3442C-0.761079 12.5347 1.78293 5.68549 8.08439 2.08967C14.0686 -1.323 21.2957 -0.381102 26.1483 3.64585C26.0843 3.66895 26.0235 3.70031 25.9675 3.73913C24.3431 5.19366 22.7944 6.73062 21.3276 8.34396C19.5296 10.3176 17.7589 12.3254 15.9757 14.3139C15.7938 14.5163 15.6175 14.7234 15.4435 14.9338C15.4203 14.9709 15.3849 14.9988 15.3434 15.0127C15.3019 15.0266 15.2569 15.0257 15.216 15.01C14.226 14.7353 13.2046 14.59 12.1773 14.5778C8.54611 14.53 5.12074 15.3138 1.96262 17.1543C1.41901 17.474 0.909529 17.8574 0.382986 18.21C0.321575 18.2498 0.263576 18.293 0.195341 18.3442Z" fill="#AFB9E1"/>
<path fill-rule="evenodd" clip-rule="evenodd" d="M21.8779 30.8654C22.0076 30.3455 22.1634 29.8416 22.2544 29.3274C22.392 28.5448 22.5193 27.761 22.5955 26.9727C22.6842 26.0342 22.6751 25.0866 22.7832 24.1504C22.8638 23.5934 22.9994 23.0459 23.188 22.5157C23.7339 20.8094 24.4708 19.1849 25.2555 17.5798C26.7233 14.6046 28.3418 11.7061 30.1047 8.89574C30.1377 8.84113 30.1798 8.78881 30.2185 8.72852C34.2227 16.0896 31.491 27.0091 21.8779 30.8654Z" fill="#AFB9E1"/>
<path fill-rule="evenodd" clip-rule="evenodd" d="M18.0217 31.8664C14.3632 32.3271 10.9833 31.5911 7.80811 29.7437C8.07991 29.5162 8.3301 29.308 8.57461 29.0987C10.2873 27.6019 11.8801 25.9733 13.3385 24.2277C14.6884 22.6351 15.9849 20.9902 17.3041 19.368C17.4758 19.1553 17.4758 19.1405 17.7089 19.2872C18.4027 19.7059 18.9883 20.2337 19.3659 20.9629C19.4324 21.0808 19.4693 21.2131 19.4734 21.3484C19.4776 21.4837 19.4489 21.618 19.3898 21.7398C18.7211 23.296 18.1218 24.8749 17.7294 26.5233C17.4573 27.595 17.3164 28.6959 17.3098 29.8017C17.2967 30.5143 17.5261 31.2102 17.9603 31.7754C17.9762 31.7947 17.9932 31.8209 18.0217 31.8664Z" fill="#AFB9E1"/>
<path fill-rule="evenodd" clip-rule="evenodd" d="M13.2897 18.0332C13.0815 18.2607 12.9041 18.4666 12.721 18.6589C11.0459 20.4232 9.38209 22.1978 7.69329 23.9508C6.71231 24.9695 5.65915 25.9162 4.54199 26.7833C4.47603 26.8334 4.41007 26.8789 4.31454 26.9494C3.97337 26.5433 3.63219 26.1531 3.32059 25.7493C2.6824 24.9289 2.12914 24.0458 1.66931 23.1136C1.64205 23.0729 1.62904 23.0244 1.63234 22.9756C1.63563 22.9268 1.65504 22.8805 1.68751 22.8439C2.696 21.4751 4.0022 20.3533 5.50751 19.5632C6.85946 18.8437 8.32715 18.3671 9.84381 18.1549C10.7264 18.0268 11.6178 17.9689 12.5095 17.982C12.7517 17.9843 12.9985 18.0128 13.2897 18.0332Z" fill="#AFB9E1"/>
<path fill-rule="evenodd" clip-rule="evenodd" d="M27.5334 6.42383C25.0542 10.4735 22.8514 14.6541 20.7907 18.937C20.558 18.464 20.2408 18.0376 19.8548 17.6788C19.4772 17.3137 19.0723 16.9769 18.6641 16.6152C18.9029 16.3035 19.1667 15.9531 19.4328 15.605C21.1239 13.4209 22.8434 11.2596 24.6778 9.19719C25.4329 8.35426 26.1881 7.5193 27.0535 6.79012C27.2059 6.66158 27.3719 6.54782 27.5334 6.42383Z" fill="#AFB9E1"/>
</svg>
