<svg width="21" height="22" viewBox="0 0 21 22" fill="none" xmlns="http://www.w3.org/2000/svg">
<path d="M10.7248 5.86463L12.221 9.6731L16.3692 9.89594L13.1394 12.4687L14.2126 16.4088L10.7248 14.1906L7.2267 16.4088L8.29986 12.4687L5.07007 9.89594L9.22856 9.6731L10.7248 5.86463Z" fill="white"/>
<path d="M10.7042 22C10.6113 21.999 10.5196 21.9797 10.4345 21.9431C10.3494 21.9066 10.2727 21.8536 10.2089 21.7873L0.921939 12.023C0.824367 11.895 0.776774 11.7369 0.787794 11.5774C0.777767 11.5068 0.777767 11.4352 0.787794 11.3646H0.787794C1.38329 9.23543 2.67465 7.35708 4.4634 6.01831C6.25216 4.67954 8.43932 3.95443 10.6887 3.95443C12.9381 3.95443 15.1253 4.67954 16.914 6.01831C18.7028 7.35708 19.9941 9.23543 20.5896 11.3646C20.5997 11.4352 20.5997 11.5068 20.5896 11.5774C20.5891 11.7421 20.5266 11.9008 20.4142 12.023L11.1273 21.7873C11.02 21.9098 10.8681 21.9861 10.7042 22ZM2.21179 11.4052L10.7042 20.3794L19.2276 11.4052C18.66 9.6264 17.5286 8.07199 15.9983 6.96839C14.4679 5.86478 12.6186 5.26963 10.7197 5.26963C8.82074 5.26963 6.97141 5.86478 5.44109 6.96839C3.91077 8.07199 2.7794 9.6264 2.21179 11.4052Z" fill="white"/>
<path d="M10.7248 2.02578C11.2946 2.02578 11.7566 1.5723 11.7566 1.01289C11.7566 0.453487 11.2946 0 10.7248 0C10.1549 0 9.69287 0.453487 9.69287 1.01289C9.69287 1.5723 10.1549 2.02578 10.7248 2.02578Z" fill="white"/>
<path d="M17.0502 3.95028C17.6201 3.95028 18.0821 3.49679 18.0821 2.93739C18.0821 2.37798 17.6201 1.9245 17.0502 1.9245C16.4803 1.9245 16.0183 2.37798 16.0183 2.93739C16.0183 3.49679 16.4803 3.95028 17.0502 3.95028Z" fill="white"/>
<path d="M4.38906 3.95028C4.95895 3.95028 5.42094 3.49679 5.42094 2.93739C5.42094 2.37798 4.95895 1.9245 4.38906 1.9245C3.81917 1.9245 3.35718 2.37798 3.35718 2.93739C3.35718 3.49679 3.81917 3.95028 4.38906 3.95028Z" fill="white"/>
</svg>
