<svg width="24" height="24" viewBox="0 0 24 24" fill="none" xmlns="http://www.w3.org/2000/svg">
    <path d="M10.4002 3.19995C9.45468 3.19995 8.51842 3.38618 7.64487 3.74802C6.77133 4.10985 5.97761 4.6402 5.30903 5.30878C4.64044 5.97736 4.1101 6.77109 3.74826 7.64463C3.38643 8.51817 3.2002 9.45443 3.2002 10.4C3.2002 11.3455 3.38643 12.2817 3.74826 13.1553C4.1101 14.0288 4.64044 14.8225 5.30903 15.4911C5.97761 16.1597 6.77133 16.69 7.64487 17.0519C8.51842 17.4137 9.45468 17.6 10.4002 17.6C11.3457 17.6 12.282 17.4137 13.1555 17.0519C14.0291 16.69 14.8228 16.1597 15.4914 15.4911C16.1599 14.8225 16.6903 14.0288 17.0521 13.1553C17.414 12.2817 17.6002 11.3455 17.6002 10.4C17.6002 9.45443 17.414 8.51817 17.0521 7.64463C16.6903 6.77109 16.1599 5.97736 15.4914 5.30878C14.8228 4.6402 14.0291 4.10985 13.1555 3.74802C12.282 3.38618 11.3457 3.19995 10.4002 3.19995V3.19995Z" stroke="#32AAA7" stroke-width="2" stroke-miterlimit="10"/>
    <path d="M20.8002 20.8L15.5498 15.5496" stroke="#32AAA7" stroke-width="2" stroke-miterlimit="10" stroke-linecap="round"/>
</svg>
