<svg width="32" height="32" viewBox="0 0 32 32" fill="none" xmlns="http://www.w3.org/2000/svg">
<rect x="0.5" y="0.5" width="31" height="31" rx="0.5" stroke="#9A9A9A"/>
<path d="M14.6667 8.66667C13.8788 8.66667 13.0985 8.82187 12.3706 9.12339C11.6426 9.42492 10.9812 9.86688 10.424 10.424C9.86689 10.9812 9.42494 11.6426 9.12341 12.3706C8.82188 13.0985 8.66669 13.8787 8.66669 14.6667C8.66669 15.4546 8.82188 16.2348 9.12341 16.9628C9.42494 17.6907 9.86689 18.3522 10.424 18.9093C10.9812 19.4665 11.6426 19.9084 12.3706 20.2099C13.0985 20.5115 13.8788 20.6667 14.6667 20.6667C15.4546 20.6667 16.2348 20.5115 16.9628 20.2099C17.6907 19.9084 18.3522 19.4665 18.9093 18.9093C19.4665 18.3522 19.9084 17.6907 20.21 16.9628C20.5115 16.2348 20.6667 15.4546 20.6667 14.6667C20.6667 13.8787 20.5115 13.0985 20.21 12.3706C19.9084 11.6426 19.4665 10.9812 18.9093 10.424C18.3522 9.86688 17.6907 9.42492 16.9628 9.12339C16.2348 8.82187 15.4546 8.66667 14.6667 8.66667V8.66667Z" stroke="#9A9A9A" stroke-width="2" stroke-miterlimit="10"/>
<path d="M23.3334 23.3334L18.958 18.958" stroke="#9A9A9A" stroke-width="2" stroke-miterlimit="10" stroke-linecap="round"/>
</svg>
